<?xml version="1.0" encoding="UTF-8" standalone="no"?>
<svg width="167px" height="46px" viewBox="0 0 167 46" version="1.1" xmlns="http://www.w3.org/2000/svg" xmlns:xlink="http://www.w3.org/1999/xlink" xmlns:sketch="http://www.bohemiancoding.com/sketch/ns">
    <!-- Generator: Sketch 3.5.2 (25235) - http://www.bohemiancoding.com/sketch -->
    <title>CS-Logo-colour@3x</title>
    <desc>Created with Sketch.</desc>
    <defs></defs>
    <g id="Page-1" stroke="none" stroke-width="1" fill="none" fill-rule="evenodd" sketch:type="MSPage">
        <g id="Colour-palettes" sketch:type="MSArtboardGroup" transform="translate(-56.000000, -857.000000)">
            <g id="CS" sketch:type="MSLayerGroup" transform="translate(56.000000, 798.000000)">
                <g id="CS-Logo-colour" transform="translate(0.000000, 59.000000)" sketch:type="MSShapeGroup">
                    <g id="Group">
                        <path d="M51.293972,29.827043 C41.9553944,19.2259887 39.5846187,6.3936968 45.6487477,0.495070695 L44.142314,0.495070695 L21.5941925,0.495070695 C20.4770093,0.495070695 19.3676299,0.597652912 18.2785402,0.772488689 C17.4975421,0.892316611 16.7284056,1.05406944 15.9730037,1.24882698 C15.9146318,1.26339663 15.8568841,1.27826362 15.7985121,1.2931306 C15.7173533,1.31483641 15.6358822,1.33535285 15.5550355,1.35765333 C15.4105103,1.39571282 15.2650486,1.43258295 15.121772,1.47242648 C15.121772,1.47688657 15.1223963,1.48104933 15.1223963,1.48550943 C8.17519626,3.56331965 2.71757383,8.78906588 2.71757383,15.9278961 L2.71757383,21.0076485 C2.71757383,26.9618771 6.68749159,32.0431163 11.8969551,34.9775623 L1.54576449,34.9775623 C0.740418692,34.9775623 0.0880261682,35.8618508 0.0880261682,36.6283926 C0.0880261682,37.3949345 0.740418692,38.279223 1.54576449,38.279223 L21.9060299,38.279223 L23.3578374,38.279223 L29.5908393,38.279223 C30.114314,41.5805863 33.8204654,45.6547357 38.3216617,45.6547357 C42.8228579,45.6547357 46.5315065,41.5805863 47.0546692,38.279223 L55.6394056,38.279223 L55.9515551,38.279223 L61.4937701,38.279223 C57.9296467,36.2165771 54.4142187,33.3692516 51.293972,29.827043 L51.293972,29.827043 Z M17.8761794,17.0027793 C15.4055159,17.0027793 13.1155869,15.2502588 13.1155869,12.8983013 L13.1155869,12.3297877 C13.1155869,10.3914298 14.6738374,8.59014558 16.606043,8.01895591 C16.5979271,7.99427671 16.5910598,7.96900283 16.5829439,7.94402629 C16.9032093,7.87117805 17.2319028,7.8319292 17.5640299,7.8319292 L32.462615,7.8319292 C34.9295327,7.8319292 36.6800673,9.97961426 36.6800673,12.3297877 L36.6800673,12.898004 C36.6800673,15.2502588 34.9295327,17.0027793 32.462615,17.0027793 L21.6481944,17.0027793 L21.3360449,17.0027793 L17.8761794,17.0027793 L17.8761794,17.0027793 Z M38.3216617,40.3992554 C36.4063121,40.3992554 34.8546168,38.9211795 34.8546168,37.0984868 C34.8546168,35.2749021 36.4063121,33.7956368 38.3216617,33.7956368 C40.2363869,33.7956368 41.789643,35.2749021 41.789643,37.0984868 C41.789643,38.9211795 40.2363869,40.3992554 38.3216617,40.3992554 L38.3216617,40.3992554 Z" id="XMLID_27_" fill="#534A3D"></path>
                        <path d="M165.121484,26.6829725 L160.359331,26.6829725 L160.359331,24.0976033 L166.404419,24.0976033 C166.535834,23.377149 166.601697,22.7580877 166.601697,22.2410138 C166.601697,21.9745974 166.585153,21.6927193 166.552378,21.3947849 C166.51929,21.0974451 166.46997,20.7760208 166.404419,20.4314041 L155.992359,20.4314041 L155.992359,37.3295198 L166.552378,37.3295198 C166.700336,36.6715069 166.774628,36.0527429 166.774628,35.4729304 C166.774628,34.9403948 166.700336,34.3448233 166.552378,33.6868104 L160.359331,33.6868104 L160.359331,30.349469 L165.121484,30.349469 C165.269443,29.6756971 165.343422,29.0646639 165.343422,28.5160721 C165.343422,27.9835366 165.269443,27.3725034 165.121484,26.6829725 L165.121484,26.6829725 Z M144.149406,37.3295198 L154.215916,37.3295198 C154.298011,36.9221643 154.351701,36.5736821 154.376361,36.2837759 C154.401021,35.9938696 154.413194,35.7158569 154.413194,35.4494405 C154.413194,35.2142448 154.401021,34.9519911 154.376361,34.6620848 C154.351701,34.3721786 154.298011,34.0314272 154.215916,33.6395334 L148.516378,33.6395334 L148.516378,20.4783837 C148.088421,20.4159424 147.689806,20.3689627 147.319908,20.3371474 C146.949699,20.3059267 146.616636,20.2901677 146.320718,20.2901677 C146.04072,20.2901677 145.71983,20.3059267 145.358361,20.3371474 C144.996267,20.3689627 144.593594,20.4159424 144.149406,20.4783837 L144.149406,37.3295198 L144.149406,37.3295198 Z M136.399669,30.9370124 C136.103439,31.0155101 135.819695,31.074086 135.548437,31.1130375 C135.276867,31.1525837 135.001239,31.1719108 134.721865,31.1719108 C134.458411,31.1719108 134.203697,31.1484209 133.957099,31.1014412 C133.710189,31.0544616 133.447047,30.9920202 133.167361,30.9135225 L134.820505,24.8733627 L136.399669,30.9370124 L136.399669,30.9370124 Z M132.279295,34.0626479 C132.706628,34.1726636 133.118041,34.2547294 133.51291,34.3094399 C133.907467,34.3644477 134.293908,34.391803 134.672546,34.391803 C135.083335,34.391803 135.499118,34.3605823 135.918335,34.2978436 C136.337864,34.2354023 136.777682,34.1414429 137.238415,34.0156682 L138.176112,37.2825401 C138.554125,37.3449815 138.907791,37.3919611 139.237108,37.4234792 C139.565802,37.4546998 139.894807,37.4704588 140.223813,37.4704588 C140.930832,37.4704588 141.753658,37.3999893 142.691355,37.2590503 L137.238415,20.4548939 C136.761138,20.4079142 136.337864,20.3689627 135.967654,20.3371474 C135.597757,20.3059267 135.256265,20.2901677 134.943804,20.2901677 C134.565166,20.2901677 134.191211,20.3059267 133.821314,20.3371474 C133.451105,20.3689627 133.052178,20.4079142 132.624533,20.4548939 L127.097925,37.2355604 C127.574578,37.3140581 128.006593,37.3726341 128.393034,37.4118829 C128.779475,37.4508344 129.120966,37.4704588 129.417196,37.4704588 C129.713114,37.4704588 130.01746,37.4546998 130.329921,37.4234792 C130.642383,37.3919611 130.987621,37.3449815 131.366258,37.2825401 L132.279295,34.0626479 L132.279295,34.0626479 Z M120.776585,26.5655233 C120.34894,26.4091225 119.978731,26.2209065 119.666581,26.0014697 C119.353807,25.782033 119.197733,25.4454444 119.197733,24.9908119 C119.197733,24.7243955 119.255168,24.5013907 119.370351,24.3209054 C119.485222,24.1410149 119.637551,24.0000758 119.826714,23.897791 C120.015564,23.7961008 120.229699,23.7217658 120.468181,23.6744888 C120.706664,23.6275091 120.957632,23.6040193 121.220774,23.6040193 C122.076064,23.6040193 122.79151,23.698276 123.367426,23.8861947 C123.94303,24.0741134 124.444654,24.2545987 124.872299,24.4267584 C125.135441,23.8942229 125.353634,23.3260066 125.526252,22.7227042 C125.698871,22.1196992 125.818112,21.5675393 125.883976,21.0659271 C124.99591,20.76829 124.16091,20.5411224 123.3796,20.3844244 C122.59829,20.2277263 121.788262,20.1492286 120.949516,20.1492286 C120.011819,20.1492286 119.164645,20.2631098 118.407994,20.48998 C117.651344,20.7174449 117.005507,21.0540335 116.471419,21.5006378 C115.936707,21.9472421 115.521236,22.4916712 115.225318,23.1342225 C114.929088,23.7767737 114.781129,24.5129869 114.781129,25.3431595 C114.781129,26.0172287 114.87571,26.6047721 115.064873,27.1060869 C115.253723,27.6076991 115.521236,28.0501407 115.866785,28.4340063 C116.212335,28.8178719 116.627493,29.1505951 117.112886,29.4327705 C117.597654,29.7146486 118.136736,29.9578725 118.728884,30.1612529 L120.110458,30.6548369 C120.323968,30.7333346 120.533733,30.8156977 120.739751,30.9016289 C120.945146,30.9878575 121.13025,31.0937104 121.294753,31.2188904 C121.458944,31.3443678 121.590983,31.4972005 121.689622,31.677091 C121.788262,31.8575762 121.837581,32.0731476 121.837581,32.3235076 C121.837581,32.9190792 121.603157,33.3380309 121.134621,33.5809575 C120.665772,33.8238841 120.011819,33.9451987 119.173073,33.9451987 C118.054329,33.9451987 116.738307,33.6320999 115.225318,33.0050104 C114.994639,33.6478589 114.797361,34.2782192 114.63317,34.8969832 C114.468667,35.516342 114.353172,36.0997226 114.287621,36.6480171 C115.19223,36.9768748 116.035346,37.2200988 116.816656,37.3764995 C117.597654,37.5329002 118.498206,37.6116952 119.51831,37.6116952 C120.636742,37.6116952 121.627817,37.4823524 122.491535,37.2236668 C123.35494,36.9652786 124.082873,36.597172 124.675021,36.1190496 C125.267168,35.641522 125.715103,35.0697376 126.019761,34.4033992 C126.323794,33.7376555 126.476123,32.9895487 126.476123,32.1590788 C126.476123,31.3916448 126.369056,30.7372 126.155546,30.1966364 C125.941411,29.6560727 125.637378,29.1940067 125.242508,28.8098437 C124.847639,28.4262755 124.374733,28.0971203 123.823789,27.8226757 C123.272533,27.5488258 122.651979,27.278544 121.96088,27.0121276 L120.776585,26.5655233 L120.776585,26.5655233 Z M94.9196785,37.2590503 C95.7749682,37.3999893 96.5069589,37.4704588 97.1156505,37.4704588 C97.6747103,37.4704588 98.390157,37.3999893 99.2623028,37.2590503 L99.2623028,23.8157252 C99.2950785,23.8002635 99.3690579,23.7845045 99.4842411,23.7687455 C99.5991121,23.7532838 99.7392673,23.7452557 99.9037701,23.7452557 C100.578013,23.7452557 101.145501,23.9254435 101.606234,24.2858193 C102.066342,24.6461951 102.297021,25.2179795 102.297021,26.0014697 C102.297021,26.4091225 102.226787,26.8004217 102.087256,27.1765565 C101.947413,27.5523939 101.774794,27.8934426 101.569088,28.1988105 C101.363381,28.5044758 101.141131,28.7670268 100.902961,28.9861662 C100.664479,29.2059003 100.446598,29.362301 100.249007,29.4562604 L100.027069,29.5737096 L103.530636,37.2590503 C103.859641,37.321789 104.242024,37.3684713 104.678097,37.3999893 C105.113546,37.43121 105.495929,37.446969 105.825247,37.446969 C106.203572,37.446969 106.627159,37.43121 107.096007,37.3999893 C107.564856,37.3684713 107.996559,37.321789 108.391116,37.2590503 L104.542312,30.0203139 C104.805142,29.8323952 105.072654,29.6052276 105.344224,29.3388112 C105.615482,29.0723947 105.862393,28.759296 106.084331,28.3986229 C106.306269,28.0382471 106.487316,27.6270262 106.627159,27.1646629 C106.76669,26.7028942 106.836923,26.1816576 106.836923,25.6018451 C106.836923,24.5207177 106.614673,23.6275091 106.170796,22.9225165 C105.726607,22.217524 105.150692,21.6614986 104.443673,21.2538458 C103.73603,20.8464904 102.93006,20.5604495 102.025763,20.3960206 C101.120841,20.2315917 100.21592,20.1492286 99.3116224,20.1492286 C98.5546598,20.1492286 97.8351551,20.1846121 97.1527963,20.2550816 C96.4698131,20.3255511 95.7256486,20.4001834 94.9196785,20.4783837 L94.9196785,37.2590503 L94.9196785,37.2590503 Z M84.917471,34.0156682 C83.831815,34.0156682 83.0299028,33.5967165 82.5117346,32.7582184 C81.9935664,31.9203149 81.7344822,30.6471061 81.7344822,28.9391865 C81.7344822,25.5236447 82.8035944,23.8157252 84.9421308,23.8157252 C87.0307234,23.8157252 88.0754879,25.5236447 88.0754879,28.9391865 C88.0754879,32.3235076 87.0226075,34.0156682 84.917471,34.0156682 L84.917471,34.0156682 Z M77.6019346,32.4058708 C77.9059682,33.4635083 78.3748168,34.3799094 79.0081682,35.1556688 C79.6412075,35.9311309 80.4471776,36.5344333 81.4260785,36.9652786 C82.4046673,37.3961239 83.5683607,37.6116952 84.917471,37.6116952 C86.265957,37.6116952 87.4255925,37.3961239 88.3963776,36.9652786 C89.3665383,36.5344333 90.1684505,35.9311309 90.8018019,35.1556688 C91.4348411,34.3799094 91.9036897,33.4635083 92.2083477,32.4058708 C92.5123813,31.3482332 92.6647103,30.1927709 92.6647103,28.9391865 C92.6647103,27.6858995 92.5123813,26.522409 92.2083477,25.4490125 C91.9036897,24.3759133 91.4348411,23.4476186 90.8018019,22.6641283 C90.1684505,21.880638 89.3665383,21.2657394 88.3963776,20.8191351 C87.4255925,20.3725308 86.265957,20.1492286 84.917471,20.1492286 C83.5683607,20.1492286 82.4046673,20.3725308 81.4260785,20.8191351 C80.4471776,21.2657394 79.6412075,21.880638 79.0081682,22.6641283 C78.3748168,23.4476186 77.9059682,24.3759133 77.6019346,25.4490125 C77.2972766,26.522409 77.1452598,27.6858995 77.1452598,28.9391865 C77.1452598,30.1927709 77.2972766,31.3482332 77.6019346,32.4058708 L77.6019346,32.4058708 Z M65.6206991,37.2590503 C66.4756766,37.3999893 67.2079794,37.4704588 67.816671,37.4704588 C68.3922748,37.4704588 69.1158374,37.3999893 69.9879832,37.2590503 L69.9879832,30.6548369 L74.7498243,30.6548369 C74.8977832,29.9498444 74.9717626,29.3310803 74.9717626,28.7982475 C74.9717626,28.2811736 74.8977832,27.6701404 74.7498243,26.9648505 L69.9879832,26.9648505 L69.9879832,24.0976033 L76.0327589,24.0976033 C76.1641738,23.377149 76.2300374,22.7580877 76.2300374,22.2410138 C76.2300374,21.9745974 76.2134935,21.6927193 76.1807178,21.3947849 C76.1476299,21.0974451 76.0983103,20.7760208 76.0327589,20.4314041 L65.6206991,20.4314041 L65.6206991,37.2590503 L65.6206991,37.2590503 Z" id="XMLID_59_" fill="#534A3D"></path>
                        <path d="M160.80352,6.42848555 C160.375563,6.27208483 160.005665,6.08416611 159.693204,5.86443203 C159.380742,5.64529263 159.224667,5.30840668 159.224667,4.85377419 C159.224667,4.58765511 159.282103,4.36435295 159.397286,4.18416506 C159.512157,4.00397717 159.664486,3.86303812 159.853649,3.76105059 C160.042499,3.65936039 160.256634,3.58472811 160.495116,3.53774843 C160.733598,3.49076875 160.984566,3.46727891 161.247708,3.46727891 C162.102686,3.46727891 162.818445,3.56123827 163.394361,3.749157 C163.969964,3.93737306 164.471589,4.11756096 164.899234,4.28972067 C165.162376,3.75718517 165.380568,3.18926623 165.553187,2.58596387 C165.725806,1.98295884 165.845047,1.43050157 165.91091,0.928889401 C165.022845,0.631549644 164.187845,0.40408473 163.406535,0.247386678 C162.625224,0.0909859656 161.815196,0.0124882698 160.97645,0.0124882698 C160.038753,0.0124882698 159.191267,0.126072057 158.434929,0.353239631 C157.678279,0.580407206 157.032441,0.91729315 156.498041,1.36389747 C155.963641,1.81020444 155.54817,2.35493088 155.252252,2.99718475 C154.956022,3.63973597 154.808064,4.37624654 154.808064,5.20641915 C154.808064,5.88019103 154.902645,6.46773439 155.091807,6.96904922 C155.280658,7.4706614 155.54817,7.91310295 155.89372,8.29696858 C156.239269,8.68113155 156.654428,9.01385473 157.139821,9.29573282 C157.624589,9.57790825 158.163671,9.82083483 158.755819,10.0245126 L160.137393,10.5180966 C160.350903,10.5965943 160.560667,10.67866 160.766686,10.7645912 C160.97208,10.8511171 161.157185,10.9566727 161.321688,11.0821501 C161.485879,11.2076275 161.617918,11.3604601 161.716557,11.5403506 C161.815196,11.7205385 161.864516,11.9361099 161.864516,12.1867673 C161.864516,12.7823388 161.630092,13.2012905 161.161555,13.4439198 C160.692707,13.6871437 160.038753,13.808161 159.200007,13.808161 C158.081264,13.808161 156.765241,13.4950622 155.252252,12.86827 C155.021574,13.5108212 154.824295,14.1414788 154.660105,14.7602429 C154.49529,15.3793043 154.380107,15.9626849 154.314555,16.5109794 C155.219164,16.8401345 156.06228,17.0833584 156.843591,17.2397591 C157.624589,17.3961598 158.52514,17.4746575 159.545245,17.4746575 C160.663677,17.4746575 161.654751,17.3453147 162.518469,17.0869265 C163.381875,16.8282409 164.109807,16.4604316 164.701955,15.9823093 C165.294103,15.5044843 165.742037,14.9326999 166.046695,14.2666589 C166.350729,13.6009152 166.503058,12.8528083 166.503058,12.0220411 C166.503058,11.2546071 166.395991,10.6001623 166.18248,10.0595987 C165.968346,9.51903498 165.664312,9.05726634 165.269443,8.67310337 C164.874574,8.28923775 164.401667,7.96008264 163.850723,7.68593538 C163.299467,7.41208546 162.678914,7.14180362 161.987815,6.87508986 L160.80352,6.42848555 L160.80352,6.42848555 Z M139.034836,17.1220126 C139.774942,17.263249 140.441069,17.3337185 141.033217,17.3337185 C141.625364,17.3337185 142.283064,17.263249 143.006938,17.1220126 L143.006938,7.95621722 L148.755796,17.1220126 C148.903755,17.1538279 149.142237,17.1963475 149.471243,17.2513554 C149.800249,17.3060659 150.170458,17.3337185 150.581559,17.3337185 C150.94334,17.3337185 151.280774,17.3102286 151.593236,17.263249 C151.905697,17.2162693 152.144179,17.1692896 152.308682,17.1220126 L152.333342,0.341346041 C151.988105,0.278904692 151.658787,0.23192501 151.346637,0.200406996 C151.033864,0.169186322 150.737946,0.153427315 150.45826,0.153427315 C150.178574,0.153427315 149.866112,0.169186322 149.520875,0.200406996 C149.175325,0.23192501 148.788572,0.278904692 148.361239,0.341346041 L148.361239,9.55441841 L142.637041,0.341346041 C142.406363,0.294366359 142.131047,0.251549434 141.810469,0.212003247 C141.489579,0.173349078 141.181176,0.153427315 140.885258,0.153427315 C140.60526,0.153427315 140.31777,0.169186322 140.02154,0.200406996 C139.725622,0.23192501 139.396305,0.278904692 139.034836,0.341346041 L139.034836,17.1220126 L139.034836,17.1220126 Z M131.284787,10.7999747 C130.988869,10.8784724 130.705125,10.9373456 130.433867,10.9762971 C130.162297,11.015546 129.886669,11.0348731 129.607295,11.0348731 C129.343841,11.0348731 129.089127,11.0113832 128.842217,10.9644035 C128.595619,10.9174239 128.332164,10.8549825 128.052791,10.7764848 L129.705935,4.73632499 L131.284787,10.7999747 L131.284787,10.7999747 Z M127.164413,13.9259075 C127.592058,14.0356259 128.003471,14.117989 128.398028,14.1726995 C128.792897,14.2277074 129.179338,14.2547653 129.557664,14.2547653 C129.968764,14.2547653 130.384236,14.2235446 130.803764,14.1608059 C131.223293,14.0983646 131.663112,14.0044052 132.123845,13.8789278 L133.06123,17.1455024 C133.439555,17.2079438 133.793221,17.2552208 134.122226,17.2867388 C134.451232,17.3179595 134.779925,17.3337185 135.109243,17.3337185 C135.816262,17.3337185 136.639088,17.263249 137.576473,17.1220126 L132.123845,0.3178562 C131.646568,0.270876519 131.223293,0.23192501 130.853084,0.200406996 C130.483187,0.169186322 130.141383,0.153427315 129.829234,0.153427315 C129.450596,0.153427315 129.076641,0.169186322 128.706744,0.200406996 C128.336535,0.23192501 127.937607,0.270876519 127.509963,0.3178562 L121.983043,17.0985227 C122.460007,17.1773178 122.89171,17.2355964 123.278464,17.2748452 C123.664905,17.3137967 124.006396,17.3337185 124.302314,17.3337185 C124.598544,17.3337185 124.902578,17.3179595 125.215351,17.2867388 C125.527501,17.2552208 125.87305,17.2079438 126.251688,17.1455024 L127.164413,13.9259075 L127.164413,13.9259075 Z M112.074793,0.341346041 C111.762019,0.294366359 111.399925,0.251549434 110.989136,0.212003247 C110.577723,0.173349078 110.199398,0.153427315 109.854161,0.153427315 C109.426204,0.153427315 108.982015,0.173349078 108.521594,0.212003247 C108.061174,0.251549434 107.690964,0.294366359 107.411591,0.341346041 L113.061497,17.1455024 C113.538462,17.2079438 113.949875,17.2552208 114.295112,17.2867388 C114.640662,17.3179595 114.977471,17.3337185 115.306789,17.3337185 C115.652338,17.3337185 116.010062,17.3179595 116.379959,17.2867388 C116.750168,17.2552208 117.148783,17.2079438 117.57674,17.1455024 L123.251619,0.341346041 C122.938845,0.294366359 122.577064,0.251549434 122.165963,0.212003247 C121.75455,0.173349078 121.409312,0.153427315 121.129626,0.153427315 C120.701669,0.153427315 120.294626,0.169186322 119.908497,0.200406996 C119.521744,0.23192501 119.139361,0.278904692 118.761036,0.341346041 L115.380768,11.7166731 L112.074793,0.341346041 L112.074793,0.341346041 Z M102.388168,10.7999747 C102.091938,10.8784724 101.808194,10.9373456 101.536936,10.9762971 C101.265366,11.015546 100.989738,11.0348731 100.710364,11.0348731 C100.44691,11.0348731 100.192196,11.0113832 99.945286,10.9644035 C99.6986879,10.9174239 99.4355458,10.8549825 99.1558598,10.7764848 L100.809004,4.73632499 L102.388168,10.7999747 L102.388168,10.7999747 Z M98.2677944,13.9259075 C98.6951271,14.0356259 99.1065402,14.117989 99.5014093,14.1726995 C99.8959664,14.2277074 100.282407,14.2547653 100.661045,14.2547653 C101.071834,14.2547653 101.487617,14.2235446 101.906834,14.1608059 C102.326363,14.0983646 102.766181,14.0044052 103.226914,13.8789278 L104.164611,17.1455024 C104.542624,17.2079438 104.89629,17.2552208 105.225607,17.2867388 C105.554301,17.3179595 105.883307,17.3337185 106.212312,17.3337185 C106.919331,17.3337185 107.742157,17.263249 108.679854,17.1220126 L103.226914,0.3178562 C102.749637,0.270876519 102.326363,0.23192501 101.956153,0.200406996 C101.586256,0.169186322 101.244764,0.153427315 100.932303,0.153427315 C100.553665,0.153427315 100.17971,0.169186322 99.8098131,0.200406996 C99.4396037,0.23192501 99.0406766,0.270876519 98.6130318,0.3178562 L93.0864243,17.0985227 C93.5630766,17.1773178 93.9950916,17.2355964 94.3815327,17.2748452 C94.7679738,17.3137967 95.1094654,17.3337185 95.4056953,17.3337185 C95.7016131,17.3337185 96.0059589,17.3179595 96.3184206,17.2867388 C96.6308822,17.2552208 96.9761196,17.2079438 97.354757,17.1455024 L98.2677944,13.9259075 L98.2677944,13.9259075 Z M78.7587607,17.1220126 C79.6137383,17.263249 80.3460411,17.3337185 80.9547327,17.3337185 C81.5137925,17.3337185 82.2292393,17.263249 83.1010729,17.1220126 L83.1010729,3.67868747 C83.1338486,3.66322581 83.2081402,3.6474668 83.3233234,3.63170779 C83.4381944,3.61624612 83.5780374,3.60821795 83.7428523,3.60821795 C84.4170953,3.60821795 84.9845832,3.78840584 85.4450037,4.14878163 C85.9054243,4.50945475 86.1361028,5.08123911 86.1361028,5.86443203 C86.1361028,6.27208483 86.0658692,6.66368129 85.9263383,7.03951875 C85.7861832,7.41565354 85.6135645,7.7564049 85.4081701,8.06207017 C85.2021514,8.3674381 84.9802131,8.62998911 84.742043,8.84942585 C84.5032486,9.06886259 84.2853682,9.2252633 84.0880897,9.31922266 L83.8661514,9.43696921 L87.3697178,17.1220126 C87.6984112,17.1850486 88.0807944,17.2314336 88.5168673,17.263249 C88.952628,17.2944696 89.3350112,17.3102286 89.664329,17.3102286 C90.0423421,17.3102286 90.4662411,17.2944696 90.9347776,17.263249 C91.4036262,17.2314336 91.835329,17.1850486 92.2301981,17.1220126 L88.3813944,9.88327618 C88.6442243,9.69535746 88.9117364,9.46848722 89.1829944,9.20177346 C89.4545645,8.93565438 89.7011626,8.62225827 89.9234131,8.26158515 C90.1453514,7.9015067 90.326086,7.49028582 90.4662411,7.0279225 C90.605772,6.56585651 90.6756935,6.04491726 90.6756935,5.46480739 C90.6756935,4.38368004 90.4537551,3.49076875 90.0095664,2.78577618 C89.5656897,2.08048628 88.9894617,1.52446093 88.282443,1.11710547 C87.5751121,0.70975 86.7691421,0.423709154 85.8645327,0.259280268 C84.9599234,0.0945540427 84.0550019,0.0124882698 83.1507047,0.0124882698 C82.3937421,0.0124882698 81.6739252,0.0475743611 80.9915664,0.118043884 C80.3088953,0.188513406 79.5644187,0.263145685 78.7587607,0.341346041 L78.7587607,17.1220126 L78.7587607,17.1220126 Z M71.0090243,10.7999747 C70.7127944,10.8784724 70.4290505,10.9373456 70.1577925,10.9762971 C69.8862224,11.015546 69.6105944,11.0348731 69.3312206,11.0348731 C69.0677664,11.0348731 68.8130523,11.0113832 68.5664542,10.9644035 C68.3195439,10.9174239 68.0564019,10.8549825 67.7767159,10.7764848 L69.4298598,4.73632499 L71.0090243,10.7999747 L71.0090243,10.7999747 Z M66.8886505,13.9259075 C67.3159832,14.0356259 67.7273963,14.117989 68.1222654,14.1726995 C68.5171346,14.2277074 68.9032636,14.2547653 69.2819009,14.2547653 C69.6926897,14.2547653 70.1084729,14.2235446 70.5280019,14.1608059 C70.9472187,14.0983646 71.3870374,14.0044052 71.8477701,13.8789278 L72.7854673,17.1455024 C73.1637925,17.2079438 73.5171458,17.2552208 73.8464636,17.2867388 C74.175157,17.3179595 74.5041626,17.3337185 74.8331682,17.3337185 C75.5404991,17.3337185 76.3630131,17.263249 77.3007103,17.1220126 L71.8477701,0.3178562 C71.3704935,0.270876519 70.9472187,0.23192501 70.5773215,0.200406996 C70.2071121,0.169186322 69.8656206,0.153427315 69.5531589,0.153427315 C69.1748336,0.153427315 68.8008785,0.169186322 68.4306692,0.200406996 C68.0604598,0.23192501 67.6615327,0.270876519 67.2338879,0.3178562 L61.7072804,17.0985227 C62.1842449,17.1773178 62.6159477,17.2355964 63.0027009,17.2748452 C63.3888299,17.3137967 63.7303215,17.3337185 64.0265514,17.3337185 C64.3224692,17.3337185 64.626815,17.3179595 64.9392766,17.2867388 C65.2517383,17.2552208 65.5969757,17.2079438 65.9756131,17.1455024 L66.8886505,13.9259075 L66.8886505,13.9259075 Z M53.0348299,4.95962715 C53.7665084,4.1059647 54.7990991,3.67868747 56.1313533,3.67868747 C56.4107271,3.67868747 56.6741813,3.69058106 56.9207794,3.7140709 C57.1676897,3.73756075 57.4142879,3.77264684 57.660886,3.81962652 C57.9077963,3.86690354 58.1668804,3.92964223 58.4381383,4.00784258 C58.7097084,4.08634028 59.0096841,4.18029964 59.3386897,4.28972067 C59.5690561,3.83568287 59.7909944,3.30671544 60.0048168,2.70341307 C60.2186393,2.10040804 60.3419383,1.47748125 60.3750262,0.834930038 C59.5028804,0.505774927 58.7134542,0.286635526 58.0064355,0.176917155 C57.2991047,0.0674961248 56.5508822,0.0124882698 55.7611439,0.0124882698 C54.4288897,0.0124882698 53.2361664,0.23192501 52.1835981,0.670501152 C51.1307178,1.10937463 50.2467103,1.72040783 49.5312636,2.50360075 C48.8158168,3.28738835 48.2686187,4.21568307 47.8906056,5.28878226 C47.5119682,6.36217878 47.3231178,7.52537191 47.3231178,8.77865899 C47.3231178,10.0325407 47.5038523,11.1918685 47.8659458,12.2572368 C48.227415,13.3229025 48.7664972,14.2393036 49.4819439,15.0070349 C50.1973907,15.7747661 51.0857682,16.3742031 52.1464523,16.804751 C53.2074486,17.2355964 54.4370056,17.4511677 55.8351234,17.4511677 C56.2299925,17.4511677 56.6123757,17.4395714 56.982585,17.4157842 C57.3524822,17.3922944 57.7264374,17.3530456 58.1050748,17.298335 C58.4834,17.2433272 58.877957,17.1615588 59.2893701,17.051543 C59.700471,16.942122 60.1446598,16.801183 60.6219364,16.6287259 C60.4405776,15.4381775 60.0791084,14.2782551 59.5362804,13.1501481 C58.8614131,13.3698822 58.2901794,13.5262829 57.8213308,13.6202422 C57.3524822,13.7142016 56.8549159,13.7611813 56.3286318,13.7611813 C53.4006692,13.7611813 51.937,12.1008361 51.937,8.77865899 C51.937,7.08649843 52.3028393,5.81388427 53.0348299,4.95962715 L53.0348299,4.95962715 Z" id="XMLID_28_" fill="#5DC2E5"></path>
                    </g>
                </g>
            </g>
        </g>
    </g>
</svg>